# This file uses centimeters as units for non-parametric coordinates.

mtllib tall_box.mtl
g default
v -9.830127 0.000000 6.830127
v -14.830127 0.000000 -1.830127
v -6.169873 0.000000 -6.830127
v -1.169873 0.000000 1.830127
v -9.830127 30.000000 6.830127
v -1.169873 30.000000 1.830127
v -6.169873 30.000000 -6.830127
v -14.830127 30.000000 -1.830127
vn 0.000000 -1.000000 0.000000
vn 0.000000 -1.000000 0.000000
vn 0.000000 -1.000000 0.000000
vn 0.000000 -1.000000 0.000000
vn 0.000000 -1.000000 0.000000
vn 0.000000 -1.000000 0.000000
vn 0.000000 1.000000 -0.000000
vn 0.000000 1.000000 -0.000000
vn 0.000000 1.000000 -0.000000
vn 0.000000 1.000000 0.000000
vn 0.000000 1.000000 0.000000
vn 0.000000 1.000000 0.000000
vn 0.500000 0.000000 0.866025
vn 0.500000 0.000000 0.866025
vn 0.500000 0.000000 0.866025
vn 0.500000 -0.000000 0.866025
vn 0.500000 -0.000000 0.866025
vn 0.500000 -0.000000 0.866025
vn 0.866025 0.000000 -0.500000
vn 0.866025 0.000000 -0.500000
vn 0.866025 0.000000 -0.500000
vn 0.866025 -0.000000 -0.500000
vn 0.866025 -0.000000 -0.500000
vn 0.866025 -0.000000 -0.500000
vn -0.500000 -0.000000 -0.866025
vn -0.500000 -0.000000 -0.866025
vn -0.500000 -0.000000 -0.866025
vn -0.500000 0.000000 -0.866025
vn -0.500000 0.000000 -0.866025
vn -0.500000 0.000000 -0.866025
vn -0.866025 0.000000 0.500000
vn -0.866025 0.000000 0.500000
vn -0.866025 0.000000 0.500000
vn -0.866025 -0.000000 0.500000
vn -0.866025 -0.000000 0.500000
vn -0.866025 -0.000000 0.500000
s off
g Mesh
usemtl material_8
f 1//1 2//2 3//3
f 3//4 4//5 1//6
f 5//7 6//8 7//9
f 7//10 8//11 5//12
f 1//13 4//14 6//15
f 6//16 5//17 1//18
f 4//19 3//20 7//21
f 7//22 6//23 4//24
f 3//25 2//26 8//27
f 8//28 7//29 3//30
f 2//31 1//32 5//33
f 5//34 8//35 2//36
